<svg id="Layer_1" enable-background="new 0 0 512 512" height="512" viewBox="0 0 512 512" width="512" xmlns="http://www.w3.org/2000/svg"><g><path d="m116.334 294.042h168v210.458h-168z" fill="#ffc39c"/><path d="m116.333 294.042v120.951l113.477 6.374c13.76.773 24.523 12.157 24.523 25.939v57.194h30v-210.458z" fill="#fdaa8e"/><path d="m199.071 217.382-20.517-175.172c-1.998-17.054 10.208-32.499 27.262-34.496 17.054-1.998 32.498 10.208 34.496 27.263l17.605 150.813c.655 5.611 8.653 6.004 9.855.484l32.715-150.214c3.651-16.778 20.212-27.42 36.99-23.768 16.778 3.651 27.419 20.213 23.768 36.991l-33.185 152.643c-2.234 10.275-3.36 20.759-3.36 31.274v110.021c0 34.698-28.151 62.834-62.867 62.834h-110.93c-41.371 0-74.899-33.523-74.899-74.86v-113.813z" fill="#ffc39c"/><g fill="#fdaa8e"><path d="m210.312 34.977 14.15 121.216c1.912 16.381 16.683 28.15 33.077 26.355l-17.227-147.571c-1.998-17.054-17.442-29.26-34.496-27.263-4.126.483-7.965 1.76-11.391 3.65 8.49 4.683 14.674 13.249 15.887 23.613z"/><path d="m337.478 12.292c-7.648-1.664-15.246-.351-21.602 3.151 11.738 6.465 18.365 20.076 15.37 33.84l-33.185 152.643c-2.234 10.275-3.36 20.759-3.36 31.274v110.021c0 34.698-28.151 62.834-62.867 62.834h30c34.716 0 62.867-28.136 62.867-62.834v-110.021c0-10.515 1.127-20.999 3.36-31.274l33.185-152.643c3.651-16.779-6.99-33.34-23.768-36.991z"/><path d="m294.7 259.462s-85.547 7.213-103.341 61.598c-24.41 74.607 48.902 95.735 103.341 50.421z"/></g><path d="m233.3 304.827c16.753-22.106 42.54-33.347 68.3-32.47 8.902.303 17.424-3.625 22.794-10.74l49.245-65.25c11.564-15.322 33.355-18.368 48.638-6.798 15.261 11.553 18.247 33.304 6.669 48.581l-100.5 132.614c-38.438 50.682-72.645 39.949-118.277 35.259 0 0-7.511-29.88-2.536-58.685 3.188-18.458 25.667-42.511 25.667-42.511z" fill="#ffc39c"/><path d="m422.277 189.569c-10.695-8.096-24.574-9.026-35.908-3.609 2.047.985 4.027 2.186 5.908 3.609 15.261 11.553 18.247 33.304 6.669 48.581l-100.5 132.614c-19.804 26.112-38.484 35.921-58.182 38.654 31.627 2.969 58.657.276 88.182-38.654l100.5-132.614c11.578-15.277 8.592-37.027-6.669-48.581z" fill="#fdaa8e"/><path d="m169.272 262.489c17.171 0 31.091-13.92 31.091-31.091v-75.913c0-17.171-13.92-31.091-31.091-31.091-17.171 0-31.091 13.92-31.091 31.091v75.913c0 17.172 13.92 31.091 31.091 31.091z" fill="#ffc39c"/><path d="m169.272 124.395c-1.45 0-2.875.107-4.272.299 3.384 4.977 5.363 10.986 5.363 17.458v75.913c0 15.721-11.67 28.708-26.818 30.791 5.594 8.227 15.029 13.633 25.728 13.633 17.171 0 31.091-13.92 31.091-31.091v-75.913c-.001-17.17-13.921-31.09-31.092-31.09z" fill="#fdaa8e"/><path d="m107.09 278.9c17.171 0 31.09-13.92 31.09-31.09v-75.913c0-17.171-13.92-31.09-31.09-31.09-17.171 0-31.09 13.92-31.09 31.09v75.913c0 17.17 13.92 31.09 31.09 31.09z" fill="#ffc39c"/><path d="m107.09 140.806c-.854 0-1.697.044-2.534.111 2.31 4.346 3.624 9.303 3.624 14.569v75.913c0 16.317-12.572 29.688-28.557 30.979 5.223 9.827 15.561 16.522 27.466 16.522 17.171 0 31.09-13.92 31.09-31.09v-75.913c.002-17.172-13.918-31.091-31.089-31.091z" fill="#fdaa8e"/><g><path d="m339.871 355.684c-3.301-2.502-8.005-1.854-10.508 1.447l-6.897 9.101c-31.727 41.834-59.162 38.538-97.135 33.975-4.493-.54-14.908-1.683-15.164-1.683l-59.268.037c-37.164 0-67.399-30.217-67.399-67.36v-52.883c6.528 5.06 14.71 8.082 23.59 8.082 16.943 0 31.361-10.981 36.536-26.196 6.823 6.081 15.807 9.786 25.644 9.786 21.278 0 38.59-17.312 38.59-38.59v-75.913c0-10.844-4.503-20.652-11.729-27.669l-10.134-86.476c-1.508-12.922 7.775-24.667 20.676-26.18.93-.107 1.867-.161 2.785-.161 11.944 0 22.004 8.966 23.401 20.85l17.609 150.804c.718 6.193 5.569 10.734 11.797 11.041.223.011.443.017.662.017 5.939 0 10.892-3.97 12.169-9.845l32.721-150.212c1.339-6.157 4.995-11.424 10.296-14.831 5.302-3.406 11.615-4.544 17.768-3.205 10.769 2.346 18.586 12.028 18.586 23.022 0 1.659-.186 3.361-.549 5.046l-7.989 36.747c-.88 4.047 1.688 8.042 5.735 8.922 4.056.883 8.043-1.688 8.923-5.735l7.992-36.76c.589-2.734.888-5.5.888-8.219 0-17.996-12.782-33.841-30.395-37.679-10.071-2.19-20.395-.329-29.067 5.243s-14.654 14.189-16.844 24.26l-29.531 135.568-15.874-135.93c-2.284-19.443-18.749-34.105-38.298-34.105-1.487 0-3 .087-4.513.261-21.129 2.477-36.312 21.686-33.846 42.822l8.826 75.32c-3.387-.975-6.959-1.508-10.655-1.508-16.944 0-31.361 10.981-36.537 26.196-6.823-6.081-15.807-9.786-25.644-9.786-21.278 0-38.59 17.312-38.59 38.59v159.305c0 30.06 16.203 56.398 40.329 70.779v45.585c0 4.142 3.358 7.5 7.5 7.5s7.5-3.358 7.5-7.5v-38.592c8.485 2.959 17.588 4.588 27.069 4.588h59.213c4.571.477 9.072 1.016 13.43 1.54 11.514 1.383 22.569 2.712 33.369 2.712 6.723 0 13.346-.52 19.916-1.857v81.045h-152.996v-17.026c0-4.142-3.358-7.5-7.5-7.5s-7.5 3.358-7.5 7.5v24.526c0 4.142 3.358 7.5 7.5 7.5h167.997c4.143 0 7.5-3.358 7.5-7.5v-93.2c14.113-6.008 28.15-16.963 42.592-36.006l6.899-9.103c2.503-3.301 1.855-8.005-1.446-10.507zm-194.191-200.198c0-13.008 10.583-23.59 23.59-23.59s23.59 10.583 23.59 23.59v75.913c0 13.008-10.582 23.59-23.59 23.59s-23.59-10.583-23.59-23.59zm-62.18 16.41c0-13.008 10.582-23.59 23.59-23.59s23.59 10.583 23.59 23.59v75.913c0 13.008-10.582 23.59-23.59 23.59s-23.59-10.583-23.59-23.59z"/><path d="m443.101 211.443c-1.533-11.164-7.322-21.056-16.302-27.854-8.982-6.8-20.081-9.693-31.248-8.138-11.186 1.555-21.095 7.378-27.902 16.397l-35.453 46.975v-5.623c0-9.947 1.073-19.933 3.188-29.676l18.303-84.18c.88-4.048-1.688-8.042-5.735-8.922-4.051-.881-8.042 1.689-8.923 5.735l-18.303 84.183c-2.343 10.791-3.53 21.846-3.53 32.861v25.331c-3.86 4.184-9.468 6.521-15.344 6.33-29.086-.984-56.966 12.256-74.532 35.436-2.501 3.301-1.853 8.005 1.448 10.507 3.302 2.502 8.006 1.854 10.507-1.448 14.625-19.3 37.796-30.336 62.067-29.504 11.398.391 22.259-4.739 29.034-13.717l49.245-65.25c4.391-5.817 10.781-9.573 17.995-10.576 7.198-1.001 14.345.861 20.129 5.24 5.781 4.376 9.509 10.746 10.496 17.934.987 7.192-.887 14.344-5.277 20.137l-74.293 98.034c-2.502 3.301-1.853 8.005 1.447 10.507 1.355 1.027 2.946 1.523 4.524 1.523 2.268 0 4.509-1.024 5.983-2.971l74.293-98.034c6.809-8.984 9.714-20.078 8.183-31.237z"/></g></g></svg>